{"title":"True Justice Violence Of Action 2012 BRRip x264 - VYTO [P2PDl]","uid":7990359,"size":324220563,"categoryP":"video","categoryS":"movies","magnet":"?xt=urn:btih:9bdf1edc608e5703110f56623a627176d4d36d31&amp;dn=True+Justice+Violence+Of+Action+2012+BRRip+x264+-+VYTO+%5BP2PDl%5D&amp;tr=udp%3A%2F%2Ftracker.openbittorrent.com%3A80&amp;tr=udp%3A%2F%2Fopen.demonii.com%3A1337&amp;tr=udp%3A%2F%2Ftracker.coppersurfer.tk%3A6969&amp;tr=udp%3A%2F%2Fexodus.desync.com%3A6969","seeders":1,"leechers":0,"uploader":"ValidusVyto","files":-1,"time":1357401632,"description":"_________________________  Visit us at _________________________\n  &lt;a href=&quot;\nhttp://p2pdl.com&quot; rel=&quot;nofollow&quot; target=&quot;_NEW&quot;&gt;\nhttp://p2pdl.com&lt;/a&gt;  ____________________________ &lt;a href=&quot; http://p2pdl.com&quot; rel=&quot;nofollow&quot; target=&quot;_NEW&quot;&gt; http://p2pdl.com&lt;/a&gt;\n\n\nTrue Justice Violence Of Action 2012 BRRip 300MB x264 AAC - VYTO\n\n\t\t\t\t\nGenre: Action | Crime | Drama  \nDirector: Lauro Chartrand\nStars: Steven Seagal, Priscilla Faia and Zak Santiago.\nRated: N/a &lt;a href=&quot;\nhttp://www.imdb.com/title/tt2296471/&quot; rel=&quot;nofollow&quot; target=&quot;_NEW&quot;&gt;\nhttp://www.imdb.com/title/tt2296471/&lt;/a&gt;\n\nGeneral\nMovie name                     : True Justice Violence Of Action 2012\nFormat                         : MPEG-4\nFormat profile                 : Base Media\nCodec ID                       : isom\nFile size                      : 300 MiB\nDuration                       : 1h 30mn\nOverall bit rate mode          : Variable\nOverall bit rate               : 464 Kbps\nSource                         : 720p.BluRay.x264-SONiDO(Thanks)\n\nVideo\nID                             : 1\nFormat                         : AVC\nFormat/Info                    : Advanced Video Codec\nDuration                       : 1h 30mn\nBit rate                       : 430 Kbpss\nWidth                          : 720 pixels\nHeight                         : 400 pixels\nDisplay aspect ratio           : 16:9\nFrame rate mode                : Constant\nFrame rate                     : 23.976 fps\nStream size                    : 277 MiB (92%)\nWriting library                : x264 core 129 r2230\n\nAudio\nID                             : 2\nFormat                         : AAC\nFormat/Info                    : Advanced Audio Codec\nCodec ID                       : 40\nDuration                       : 1h 30mn\nBit rate mode                  : Variable\nBit rate                       : 32.0 Kbps\nChannel(s)                     : 2 channels\nChannel positions              : Front: L R\nSampling rate                  : 44.1 KHz\nCompression mode               : Lossy\nStream size                    : 20.7 MiB (7%)\nLanguage                       : English\n\nSubtitle                       : Na\n\nScreens:\n &lt;a href=&quot;\nhttp://www.shotpix.com/images/81546405561826454917.png&quot; rel=&quot;nofollow&quot; target=&quot;_NEW&quot;&gt;\nhttp://www.shotpix.com/images/81546405561826454917.png&lt;/a&gt; &lt;a href=&quot;\nhttp://www.shotpix.com/images/29447501236399623155.png&quot; rel=&quot;nofollow&quot; target=&quot;_NEW&quot;&gt;\nhttp://www.shotpix.com/images/29447501236399623155.png&lt;/a&gt; &lt;a href=&quot;\nhttp://www.shotpix.com/images/95216376575947779767.png&quot; rel=&quot;nofollow&quot; target=&quot;_NEW&quot;&gt;\nhttp://www.shotpix.com/images/95216376575947779767.png&lt;/a&gt; &lt;a href=&quot;\nhttp://www.shotpix.com/images/64144547863143838705.png&quot; rel=&quot;nofollow&quot; target=&quot;_NEW&quot;&gt;\nhttp://www.shotpix.com/images/64144547863143838705.png&lt;/a&gt; &lt;a href=&quot;\nhttp://www.shotpix.com/images/98765817985358435625.png&quot; rel=&quot;nofollow&quot; target=&quot;_NEW&quot;&gt;\nhttp://www.shotpix.com/images/98765817985358435625.png&lt;/a&gt; &lt;a href=&quot;\nhttp://www.shotpix.com/images/68566392481425568049.jpg&quot; rel=&quot;nofollow&quot; target=&quot;_NEW&quot;&gt;\nhttp://www.shotpix.com/images/68566392481425568049.jpg&lt;/a&gt;\n\nSample:\n\n\n\n----------------------------------------------------------------------------------------------------\n\n\nRecommend to you to use latest version of VLC player. Install K-Lite Codec Pack or shark007 codecs\nin case of any kind of problem in playback (For non-VLC Media Player users). Alternatively, install\nCore AVC codecs, the fastest decoder that there is coupled with Community Center Codec Pack and play\non Windows Media Player Classic. Check sample to be sure.\nEnjoy!\n\nGreets to: Vitamin_X, a2zRG, srkfan, MgB, Stumpie1971, Sheychi, StyLishSaLH and, Masta staff members at\nExtraTorrent, TPB,KAT, 1337x, PublicHD, Ahashare, BTScene, SilverTorrent, LimeTorrents, TorrentMafia,\nP2PDL, and all others.\n\nEncoder Notes: Looking For Early Access To Anything You Can Provide DVDScr, R5, DVDR, BluRay, Direct\nAudio, Early Music Releases, Seedboxes, Dedicated Servers anything u can provide, Advance / Promo CDs/\nDVDs. If You Got anything to offer contact me at &quot;&lt;a class=&quot;__cf_email__&quot; href=&quot;/cdn-cgi/l/email-protection&quot; data-cfemail=&quot;57272530173f22243f7934383a&quot;&gt;[email&amp;#160;protected]&lt;/a&gt;&lt;script cf-hash='f9e31' type=&quot;text/javascript&quot;&gt;\n/* &lt;![CDATA[ */!function(){try{var t=&quot;currentScript&quot;in document?document.currentScript:function(){for(var t=document.getElementsByTagName(&quot;script&quot;),e=t.length;e--;)if(t[e].getAttribute(&quot;cf-hash&quot;))return t[e]}();if(t&amp;&amp;t.previousSibling){var e,r,n,i,c=t.previousSibling,a=c.getAttribute(&quot;data-cfemail&quot;);if(a){for(e=&quot;&quot;,r=parseInt(a.substr(0,2),16),n=2;a.length-n;n+=2)i=parseInt(a.substr(n,2),16)^r,e+=String.fromCharCode(i);e=document.createTextNode(e),c.parentNode.replaceChild(e,c)}}}catch(u){}}();/* ]]&gt; */&lt;/script&gt;&quot;.\n\nFacebook Fan Page: www . facebook . com / p2pdl","torrent":{"xt":"urn:btih:9bdf1edc608e5703110f56623a627176d4d36d31","amp;dn":"True+Justice+Violence+Of+Action+2012+BRRip+x264+-+VYTO+%5BP2PDl%5D","amp;tr":["udp%3A%2F%2Ftracker.openbittorrent.com%3A80","udp%3A%2F%2Fopen.demonii.com%3A1337","udp%3A%2F%2Ftracker.coppersurfer.tk%3A6969","udp%3A%2F%2Fexodus.desync.com%3A6969"],"infoHash":"9bdf1edc608e5703110f56623a627176d4d36d31","infoHashBuffer":{"type":"Buffer","data":[155,223,30,220,96,142,87,3,17,15,86,98,58,98,113,118,212,211,109,49]},"announce":[],"urlList":[]}}